<svg width="32" height="32" viewBox="0 0 32 32" fill="none" xmlns="http://www.w3.org/2000/svg">
<path d="M5 27C2 23.9583 0.5 20.2917 0.5 16C0.5 11.7083 2 8.0625 5 5.0625C8.04167 2.02083 11.7083 0.5 16 0.5C20.2917 0.5 23.9375 2.02083 26.9375 5.0625C29.9792 8.0625 31.5 11.7083 31.5 16C31.5 20.2917 29.9792 23.9583 26.9375 27C23.9375 30 20.2917 31.5 16 31.5C11.7083 31.5 8.04167 30 5 27ZM9.5 17.8125L14 13.0625V24.5C14 24.9167 14.1458 25.2708 14.4375 25.5625C14.7292 25.8542 15.0833 26 15.5 26H16.5C16.9167 26 17.2708 25.8542 17.5625 25.5625C17.8542 25.2708 18 24.9167 18 24.5V13.0625L22.5 17.8125C22.7917 18.1042 23.1458 18.25 23.5625 18.25C24.0208 18.25 24.3958 18.1042 24.6875 17.8125L25.375 17.125C25.6667 16.8333 25.8125 16.4792 25.8125 16.0625C25.8125 15.6458 25.6667 15.2917 25.375 15L17.0625 6.75C16.7708 6.45833 16.4167 6.3125 16 6.3125C15.5833 6.3125 15.2292 6.45833 14.9375 6.75L6.625 15C6.33333 15.2917 6.1875 15.6458 6.1875 16.0625C6.1875 16.4792 6.33333 16.8333 6.625 17.125L7.3125 17.8125C7.60417 18.1042 7.95833 18.25 8.375 18.25C8.83333 18.25 9.20833 18.1042 9.5 17.8125Z" fill="#FFC700"/>
</svg>
